<svg viewBox="0 0 70 15" fill="none" xmlns="http://www.w3.org/2000/svg">
<path d="M11.896 8.312C11.944 8.296 12.016 8.288 12.112 8.288C12.384 8.288 12.52 8.464 12.52 8.816C12.52 9.008 12.476 9.172 12.388 9.308C12.308 9.436 12.18 9.516 12.004 9.548C11.276 9.684 10.56 9.836 9.856 10.004L9.82 10.292C9.596 11.868 9.148 13.032 8.476 13.784C7.812 14.544 6.98 14.924 5.98 14.924C5.316 14.924 4.8 14.76 4.432 14.432C4.072 14.112 3.892 13.7 3.892 13.196C3.892 12.356 4.268 11.608 5.02 10.952C5.772 10.296 6.912 9.716 8.44 9.212L8.68 7.52C8.712 7.328 8.752 7.072 8.8 6.752C8.424 7.744 7.944 8.484 7.36 8.972C6.776 9.46 6.124 9.704 5.404 9.704C4.716 9.704 4.192 9.496 3.832 9.08C3.472 8.656 3.292 8.112 3.292 7.448C3.292 7.152 3.324 6.828 3.388 6.476C3.452 6.116 3.552 5.632 3.688 5.024C3.808 4.472 3.896 4.032 3.952 3.704C4.016 3.376 4.048 3.084 4.048 2.828C4.048 2.444 3.9 2.252 3.604 2.252C3.372 2.252 3.096 2.368 2.776 2.6C2.464 2.824 2.132 3.172 1.78 3.644C1.668 3.796 1.544 3.872 1.408 3.872C1.296 3.872 1.196 3.82 1.108 3.716C1.028 3.604 0.988 3.48 0.988 3.344C0.988 3.096 1.1 2.816 1.324 2.504C2.14 1.384 3.096 0.823999 4.192 0.823999C4.68 0.823999 5.06 0.971999 5.332 1.268C5.612 1.564 5.752 2 5.752 2.576C5.752 2.992 5.712 3.42 5.632 3.86C5.56 4.292 5.448 4.844 5.296 5.516C5.2 5.916 5.128 6.24 5.08 6.488C5.032 6.728 5.008 6.928 5.008 7.088C5.008 7.496 5.08 7.788 5.224 7.964C5.368 8.14 5.62 8.228 5.98 8.228C6.412 8.228 6.852 7.992 7.3 7.52C7.756 7.04 8.164 6.316 8.524 5.348C8.892 4.38 9.156 3.196 9.316 1.796C9.356 1.444 9.448 1.196 9.592 1.052C9.736 0.899999 9.944 0.823999 10.216 0.823999C10.776 0.823999 11.056 1.104 11.056 1.664C11.056 1.76 11.052 1.836 11.044 1.892C10.876 3.084 10.72 4.16 10.576 5.12C10.496 5.696 10.408 6.288 10.312 6.896C10.224 7.504 10.136 8.12 10.048 8.744C10.632 8.584 11.248 8.44 11.896 8.312ZM8.26 10.472C6.324 11.144 5.356 11.96 5.356 12.92C5.356 13.144 5.424 13.328 5.56 13.472C5.704 13.624 5.904 13.7 6.16 13.7C7.272 13.7 7.968 12.652 8.248 10.556L8.26 10.472ZM17.903 7.316C18.007 7.316 18.087 7.368 18.143 7.472C18.199 7.576 18.227 7.708 18.227 7.868C18.227 8.252 18.111 8.48 17.879 8.552C17.399 8.72 16.871 8.816 16.295 8.84C16.143 9.512 15.843 10.052 15.395 10.46C14.947 10.86 14.439 11.06 13.871 11.06C13.391 11.06 12.979 10.944 12.635 10.712C12.299 10.48 12.043 10.172 11.867 9.788C11.691 9.404 11.603 8.988 11.603 8.54C11.603 7.932 11.719 7.392 11.951 6.92C12.183 6.44 12.503 6.068 12.911 5.804C13.319 5.532 13.771 5.396 14.267 5.396C14.875 5.396 15.363 5.608 15.731 6.032C16.107 6.448 16.327 6.964 16.391 7.58C16.767 7.556 17.215 7.476 17.735 7.34C17.799 7.324 17.855 7.316 17.903 7.316ZM13.967 9.788C14.223 9.788 14.443 9.684 14.627 9.476C14.819 9.268 14.947 8.968 15.011 8.576C14.763 8.408 14.571 8.188 14.435 7.916C14.307 7.644 14.243 7.356 14.243 7.052C14.243 6.924 14.255 6.796 14.279 6.668H14.219C13.899 6.668 13.631 6.824 13.415 7.136C13.207 7.44 13.103 7.872 13.103 8.432C13.103 8.872 13.187 9.208 13.355 9.44C13.531 9.672 13.735 9.788 13.967 9.788ZM18.4211 11.06C18.0611 11.06 17.7651 10.896 17.5331 10.568C17.3091 10.232 17.1971 9.816 17.1971 9.32C17.1971 8.72 17.2371 8.172 17.3171 7.676C17.3971 7.172 17.5291 6.64 17.7131 6.08C17.7931 5.84 17.9051 5.668 18.0491 5.564C18.1931 5.46 18.4211 5.408 18.7331 5.408C18.9091 5.408 19.0291 5.436 19.0931 5.492C19.1651 5.548 19.2011 5.632 19.2011 5.744C19.2011 5.808 19.1571 6.024 19.0691 6.392C18.9891 6.688 18.9251 6.956 18.8771 7.196C18.7171 8.036 18.6371 8.596 18.6371 8.876C18.6371 9.044 18.6571 9.164 18.6971 9.236C18.7371 9.3 18.8011 9.332 18.8891 9.332C19.0091 9.332 19.1571 9.212 19.3331 8.972C19.5171 8.732 19.7091 8.368 19.9091 7.88C20.1171 7.392 20.3171 6.792 20.5091 6.08C20.5731 5.84 20.6691 5.668 20.7971 5.564C20.9331 5.46 21.1331 5.408 21.3971 5.408C21.5811 5.408 21.7091 5.432 21.7811 5.48C21.8531 5.52 21.8891 5.6 21.8891 5.72C21.8891 5.92 21.7891 6.468 21.5891 7.364C21.3651 8.388 21.2531 9.02 21.2531 9.26C21.2531 9.412 21.2851 9.532 21.3491 9.62C21.4131 9.7 21.4971 9.74 21.6011 9.74C21.7611 9.74 21.9491 9.644 22.1651 9.452C22.3891 9.252 22.6851 8.932 23.0531 8.492C23.1491 8.38 23.2571 8.324 23.3771 8.324C23.4811 8.324 23.5611 8.372 23.6171 8.468C23.6811 8.564 23.7131 8.696 23.7131 8.864C23.7131 9.184 23.6371 9.432 23.4851 9.608C23.1411 10.032 22.7691 10.38 22.3691 10.652C21.9771 10.924 21.5291 11.06 21.0251 11.06C20.6411 11.06 20.3571 10.912 20.1731 10.616C19.9971 10.32 19.9091 9.904 19.9091 9.368C19.7731 9.912 19.5691 10.332 19.2971 10.628C19.0251 10.916 18.7331 11.06 18.4211 11.06ZM27.5881 7.052C27.7641 7.052 27.9121 7.116 28.0321 7.244C28.1601 7.364 28.2241 7.516 28.2241 7.7C28.2241 7.804 28.2001 7.916 28.1521 8.036C28.0241 8.332 27.8441 8.58 27.6121 8.78C27.3801 8.98 27.1241 9.08 26.8441 9.08C26.6201 9.08 26.4281 9 26.2681 8.84C26.1161 8.68 26.0401 8.464 26.0401 8.192C26.0401 8.04 26.0481 7.876 26.0641 7.7C26.0801 7.572 26.0881 7.484 26.0881 7.436C26.0881 7.372 26.0721 7.324 26.0401 7.292C26.0161 7.26 25.9841 7.244 25.9441 7.244C25.8321 7.244 25.6801 7.38 25.4881 7.652C25.2961 7.916 25.1041 8.268 24.9121 8.708C24.7201 9.148 24.5641 9.612 24.4441 10.1C24.3561 10.484 24.2561 10.74 24.1441 10.868C24.0321 10.996 23.8481 11.06 23.5921 11.06C23.2881 11.06 23.0721 10.9 22.9441 10.58C22.8241 10.26 22.7641 9.748 22.7641 9.044C22.7641 8.004 22.9121 7.016 23.2081 6.08C23.2801 5.848 23.3961 5.68 23.5561 5.576C23.7241 5.464 23.9561 5.408 24.2521 5.408C24.4121 5.408 24.5241 5.428 24.5881 5.468C24.6521 5.508 24.6841 5.584 24.6841 5.696C24.6841 5.824 24.6241 6.112 24.5041 6.56C24.4241 6.88 24.3601 7.16 24.3121 7.4C24.2641 7.64 24.2241 7.936 24.1921 8.288C24.4561 7.6 24.7521 7.04 25.0801 6.608C25.4081 6.176 25.7281 5.868 26.0401 5.684C26.3521 5.5 26.6361 5.408 26.8921 5.408C27.1241 5.408 27.3001 5.476 27.4201 5.612C27.5481 5.74 27.6121 5.932 27.6121 6.188C27.6121 6.34 27.5681 6.628 27.4801 7.052H27.5881Z" fill="#EB9869"/>
<path d="M34.0653 11.06C33.7693 11.06 33.5573 10.996 33.4293 10.868C33.3013 10.732 33.2373 10.48 33.2373 10.112C33.2373 9.864 33.2613 9.548 33.3093 9.164C33.3653 8.772 33.4533 8.236 33.5733 7.556C33.7813 6.3 33.9453 5.212 34.0653 4.292C34.1373 3.716 34.1733 3.236 34.1733 2.852C34.1733 2.492 34.0413 2.312 33.7773 2.312C33.5693 2.312 33.3173 2.42 33.0213 2.636C32.7333 2.844 32.4133 3.18 32.0613 3.644C31.9493 3.796 31.8253 3.872 31.6893 3.872C31.5773 3.872 31.4773 3.82 31.3893 3.716C31.3093 3.604 31.2692 3.48 31.2692 3.344C31.2692 3.216 31.2933 3.088 31.3413 2.96C31.3973 2.824 31.4853 2.672 31.6053 2.504C31.9893 1.968 32.4173 1.556 32.8893 1.268C33.3613 0.971999 33.8333 0.823999 34.3053 0.823999C34.7453 0.823999 35.0813 0.964 35.3133 1.244C35.5533 1.524 35.6733 1.932 35.6733 2.468C35.6733 2.684 35.6533 2.94 35.6133 3.236C35.5733 3.524 35.5373 3.76 35.5053 3.944C35.4733 4.128 35.4493 4.256 35.4333 4.328C35.8893 3.024 36.4013 2.116 36.9693 1.604C37.5373 1.084 38.1613 0.823999 38.8413 0.823999C39.3613 0.823999 39.7693 1.008 40.0653 1.376C40.3693 1.744 40.5213 2.264 40.5213 2.936C40.5213 3.2 40.4853 3.528 40.4133 3.92C40.8133 2.816 41.2813 2.024 41.8173 1.544C42.3533 1.064 42.9693 0.823999 43.6653 0.823999C44.2253 0.823999 44.6533 1.004 44.9493 1.364C45.2533 1.724 45.4053 2.228 45.4053 2.876C45.4053 3.228 45.3533 3.656 45.2493 4.16L44.5173 7.592C44.4373 7.992 44.3973 8.336 44.3973 8.624C44.3973 8.96 44.4733 9.212 44.6253 9.38C44.7853 9.548 45.0053 9.632 45.2853 9.632C45.5493 9.632 45.8053 9.544 46.0533 9.368C46.3093 9.192 46.6093 8.9 46.9533 8.492C47.0493 8.38 47.1573 8.324 47.2773 8.324C47.3813 8.324 47.4613 8.372 47.5173 8.468C47.5813 8.564 47.6133 8.696 47.6133 8.864C47.6133 9.176 47.5373 9.424 47.3853 9.608C46.9693 10.112 46.5573 10.48 46.1493 10.712C45.7413 10.944 45.3133 11.06 44.8653 11.06C44.1853 11.06 43.6533 10.86 43.2693 10.46C42.8853 10.052 42.6933 9.508 42.6933 8.828C42.6933 8.356 42.7893 7.672 42.9813 6.776L43.4613 4.58C43.4773 4.508 43.5053 4.38 43.5453 4.196C43.5853 4.012 43.6173 3.84 43.6413 3.68C43.6653 3.512 43.6772 3.348 43.6772 3.188C43.6772 2.908 43.6213 2.7 43.5093 2.564C43.4053 2.42 43.2533 2.348 43.0533 2.348C42.6773 2.348 42.2813 2.592 41.8653 3.08C41.4573 3.56 41.0653 4.36 40.6893 5.48C40.3213 6.6 40.0213 8.056 39.7893 9.848C39.7333 10.328 39.6333 10.652 39.4893 10.82C39.3533 10.98 39.1293 11.06 38.8173 11.06C38.5453 11.06 38.3453 10.996 38.2173 10.868C38.0973 10.74 38.0373 10.5 38.0373 10.148C38.0373 9.82 38.0813 9.392 38.1693 8.864C38.2573 8.328 38.3693 7.7 38.5053 6.98C38.8733 5.044 39.0573 3.796 39.0573 3.236C39.0573 2.932 38.9973 2.708 38.8773 2.564C38.7653 2.42 38.5933 2.348 38.3613 2.348C37.9693 2.348 37.5653 2.572 37.1493 3.02C36.7333 3.46 36.3253 4.248 35.9253 5.384C35.5333 6.512 35.2053 8.04 34.9413 9.968C34.8853 10.376 34.8013 10.66 34.6893 10.82C34.5853 10.98 34.3773 11.06 34.0653 11.06ZM52.7663 7.316C52.8703 7.316 52.9503 7.368 53.0063 7.472C53.0623 7.576 53.0903 7.708 53.0903 7.868C53.0903 8.252 52.9743 8.48 52.7423 8.552C52.2623 8.72 51.7343 8.816 51.1583 8.84C51.0063 9.512 50.7063 10.052 50.2583 10.46C49.8103 10.86 49.3023 11.06 48.7343 11.06C48.2543 11.06 47.8423 10.944 47.4983 10.712C47.1623 10.48 46.9063 10.172 46.7303 9.788C46.5543 9.404 46.4663 8.988 46.4663 8.54C46.4663 7.932 46.5823 7.392 46.8143 6.92C47.0463 6.44 47.3663 6.068 47.7743 5.804C48.1823 5.532 48.6343 5.396 49.1303 5.396C49.7383 5.396 50.2263 5.608 50.5943 6.032C50.9703 6.448 51.1903 6.964 51.2543 7.58C51.6303 7.556 52.0783 7.476 52.5983 7.34C52.6623 7.324 52.7183 7.316 52.7663 7.316ZM48.8303 9.788C49.0863 9.788 49.3063 9.684 49.4903 9.476C49.6823 9.268 49.8103 8.968 49.8743 8.576C49.6263 8.408 49.4343 8.188 49.2983 7.916C49.1703 7.644 49.1063 7.356 49.1063 7.052C49.1063 6.924 49.1183 6.796 49.1423 6.668H49.0823C48.7623 6.668 48.4943 6.824 48.2783 7.136C48.0703 7.44 47.9663 7.872 47.9663 8.432C47.9663 8.872 48.0503 9.208 48.2183 9.44C48.3943 9.672 48.5983 9.788 48.8303 9.788ZM58.1176 7.352C58.1416 7.344 58.1816 7.34 58.2376 7.34C58.3576 7.34 58.4496 7.38 58.5136 7.46C58.5776 7.54 58.6096 7.648 58.6096 7.784C58.6096 8.032 58.5616 8.228 58.4656 8.372C58.3696 8.508 58.2256 8.608 58.0336 8.672C57.6656 8.792 57.2736 8.852 56.8576 8.852C56.5056 8.852 56.1736 8.804 55.8616 8.708C55.6296 9.084 55.3736 9.472 55.0936 9.872C54.7736 10.328 54.4976 10.64 54.2656 10.808C54.0336 10.976 53.7696 11.06 53.4736 11.06C53.1456 11.06 52.8856 10.932 52.6936 10.676C52.5096 10.42 52.3936 10.016 52.3456 9.464C52.2496 8.344 52.2016 7.364 52.2016 6.524V6.104C52.2096 5.84 52.2816 5.656 52.4176 5.552C52.5536 5.448 52.7576 5.396 53.0296 5.396C53.2376 5.396 53.3896 5.444 53.4856 5.54C53.5896 5.628 53.6416 5.78 53.6416 5.996C53.6416 6.916 53.6976 8.112 53.8096 9.584C54.2896 8.872 54.6496 8.304 54.8896 7.88C54.7696 7.648 54.7096 7.372 54.7096 7.052C54.7096 6.78 54.7696 6.516 54.8896 6.26C55.0096 6.004 55.1736 5.796 55.3816 5.636C55.5896 5.476 55.8256 5.396 56.0896 5.396C56.3216 5.396 56.5096 5.48 56.6536 5.648C56.7976 5.808 56.8696 6.044 56.8696 6.356C56.8696 6.716 56.7736 7.128 56.5816 7.592C56.8856 7.576 57.2896 7.516 57.7936 7.412L58.1176 7.352ZM59.1402 4.616C58.8042 4.616 58.5522 4.54 58.3842 4.388C58.2162 4.228 58.1322 4.008 58.1322 3.728C58.1322 3.448 58.2402 3.216 58.4562 3.032C58.6802 2.84 58.9562 2.744 59.2842 2.744C59.5802 2.744 59.8202 2.816 60.0042 2.96C60.1882 3.104 60.2802 3.308 60.2802 3.572C60.2802 3.892 60.1762 4.148 59.9682 4.34C59.7602 4.524 59.4842 4.616 59.1402 4.616ZM59.0442 11.06C58.5242 11.06 58.1442 10.876 57.9042 10.508C57.6722 10.14 57.5562 9.652 57.5562 9.044C57.5562 8.684 57.6002 8.224 57.6882 7.664C57.7842 7.096 57.9042 6.568 58.0482 6.08C58.1202 5.824 58.2162 5.648 58.3362 5.552C58.4562 5.456 58.6482 5.408 58.9122 5.408C59.3202 5.408 59.5242 5.544 59.5242 5.816C59.5242 6.016 59.4482 6.48 59.2962 7.208C59.1042 8.088 59.0082 8.684 59.0082 8.996C59.0082 9.236 59.0402 9.42 59.1042 9.548C59.1682 9.676 59.2762 9.74 59.4282 9.74C59.5722 9.74 59.7522 9.64 59.9682 9.44C60.1842 9.24 60.4722 8.924 60.8322 8.492C60.9282 8.38 61.0362 8.324 61.1562 8.324C61.2602 8.324 61.3402 8.372 61.3962 8.468C61.4602 8.564 61.4922 8.696 61.4922 8.864C61.4922 9.184 61.4162 9.432 61.2642 9.608C60.4722 10.576 59.7322 11.06 59.0442 11.06ZM65.8733 8.324C65.9773 8.324 66.0573 8.372 66.1133 8.468C66.1773 8.564 66.2093 8.696 66.2093 8.864C66.2093 9.184 66.1333 9.432 65.9813 9.608C65.6853 9.968 65.2653 10.3 64.7213 10.604C64.1853 10.908 63.6093 11.06 62.9933 11.06C62.1533 11.06 61.5013 10.832 61.0373 10.376C60.5733 9.92 60.3413 9.296 60.3413 8.504C60.3413 7.952 60.4573 7.44 60.6893 6.968C60.9213 6.488 61.2413 6.108 61.6493 5.828C62.0653 5.548 62.5333 5.408 63.0533 5.408C63.5173 5.408 63.8893 5.548 64.1693 5.828C64.4493 6.1 64.5893 6.472 64.5893 6.944C64.5893 7.496 64.3893 7.972 63.9893 8.372C63.5973 8.764 62.9293 9.076 61.9853 9.308C62.1853 9.676 62.5653 9.86 63.1253 9.86C63.4853 9.86 63.8933 9.736 64.3493 9.488C64.8133 9.232 65.2133 8.9 65.5493 8.492C65.6453 8.38 65.7533 8.324 65.8733 8.324ZM62.8493 6.584C62.5533 6.584 62.3013 6.756 62.0933 7.1C61.8933 7.444 61.7933 7.86 61.7933 8.348V8.372C62.2653 8.26 62.6373 8.092 62.9093 7.868C63.1813 7.644 63.3173 7.384 63.3173 7.088C63.3173 6.936 63.2733 6.816 63.1853 6.728C63.1053 6.632 62.9933 6.584 62.8493 6.584ZM67.4643 11.324C67.0483 11.324 66.7283 11.228 66.5043 11.036C66.2883 10.844 66.1803 10.628 66.1803 10.388C66.1803 10.18 66.2563 10 66.4083 9.848C66.5603 9.696 66.7843 9.62 67.0803 9.62C67.1843 9.62 67.3043 9.632 67.4403 9.656C67.5843 9.672 67.6923 9.684 67.7643 9.692C67.7563 9.484 67.7083 9.288 67.6203 9.104C67.5403 8.92 67.4363 8.744 67.3083 8.576C67.1803 8.4 67.0603 8.248 66.9483 8.12C66.7003 8.592 66.4523 8.984 66.2043 9.296C65.9643 9.608 65.7003 9.904 65.4123 10.184C65.2683 10.328 65.1163 10.4 64.9563 10.4C64.8283 10.4 64.7243 10.356 64.6442 10.268C64.5642 10.172 64.5242 10.056 64.5242 9.92C64.5242 9.76 64.5802 9.612 64.6923 9.476L64.8483 9.284C65.2883 8.74 65.6203 8.292 65.8443 7.94C65.9883 7.708 66.1323 7.432 66.2763 7.112C66.4283 6.792 66.6243 6.356 66.8643 5.804C67.0163 5.452 67.3323 5.276 67.8123 5.276C68.0363 5.276 68.1923 5.296 68.2803 5.336C68.3683 5.376 68.4123 5.44 68.4123 5.528C68.4123 5.576 68.3963 5.652 68.3643 5.756C68.3323 5.86 68.2883 5.964 68.2323 6.068C68.0883 6.356 68.0163 6.6 68.0163 6.8C68.0163 6.92 68.0563 7.052 68.1363 7.196C68.2243 7.34 68.3563 7.52 68.5323 7.736C68.7883 8.072 68.9803 8.36 69.1083 8.6C69.2443 8.832 69.3123 9.088 69.3123 9.368C69.3123 9.704 69.2323 10.024 69.0723 10.328C68.9203 10.624 68.7043 10.864 68.4243 11.048C68.1443 11.232 67.8243 11.324 67.4643 11.324Z" fill="white"/>
</svg>
